<mxfile host="Electron" modified="2024-02-16T19:29:32.616Z" agent="Mozilla/5.0 (Windows NT 10.0; Win64; x64) AppleWebKit/537.36 (KHTML, like Gecko) draw.io/23.0.2 Chrome/120.0.6099.109 Electron/28.1.0 Safari/537.36" etag="_ES_fwDVTaN1dFz7wcPE" version="23.0.2" type="device">
  <diagram name="Page-1" id="rjR1ojSPm2X_Gm1_zSHM">
    <mxGraphModel dx="4785" dy="2135" grid="1" gridSize="10" guides="1" tooltips="1" connect="1" arrows="1" fold="1" page="1" pageScale="1" pageWidth="1200" pageHeight="1920" math="0" shadow="0">
      <root>
        <mxCell id="0" />
        <mxCell id="1" parent="0" />
        <mxCell id="wsFa_iTst2D4UwNhNiId-2" value="" style="html=1;align=center;verticalAlign=top;rounded=1;absoluteArcSize=1;arcSize=20;whiteSpace=wrap;shadow=0;fillColor=#fff2cc;strokeColor=#d6b656;opacity=80;" vertex="1" parent="1">
          <mxGeometry x="-980" y="660" width="1430" height="755" as="geometry" />
        </mxCell>
        <mxCell id="wsFa_iTst2D4UwNhNiId-14" value="" style="group" vertex="1" connectable="0" parent="1">
          <mxGeometry x="-920" y="730" width="330" height="260" as="geometry" />
        </mxCell>
        <mxCell id="wsFa_iTst2D4UwNhNiId-12" value="" style="html=1;align=center;verticalAlign=top;rounded=1;absoluteArcSize=1;arcSize=20;dashed=1;whiteSpace=wrap;" vertex="1" parent="wsFa_iTst2D4UwNhNiId-14">
          <mxGeometry width="330" height="260" as="geometry" />
        </mxCell>
        <mxCell id="Mo43KSsvAckhel4JkecI-11" value="&lt;b&gt;Sign up&lt;br&gt;&lt;/b&gt;" style="text;html=1;strokeColor=none;fillColor=none;align=center;verticalAlign=middle;whiteSpace=wrap;rounded=0;" parent="wsFa_iTst2D4UwNhNiId-14" vertex="1">
          <mxGeometry x="135" y="10" width="60" height="30" as="geometry" />
        </mxCell>
        <mxCell id="Mo43KSsvAckhel4JkecI-10" value="" style="rounded=0;whiteSpace=wrap;html=1;" parent="wsFa_iTst2D4UwNhNiId-14" vertex="1">
          <mxGeometry x="10" y="45" width="310" height="200" as="geometry" />
        </mxCell>
        <mxCell id="Mo43KSsvAckhel4JkecI-50" value="email" style="rounded=0;whiteSpace=wrap;html=1;" parent="wsFa_iTst2D4UwNhNiId-14" vertex="1">
          <mxGeometry x="30" y="65" width="270" height="40" as="geometry" />
        </mxCell>
        <mxCell id="Mo43KSsvAckhel4JkecI-51" value="password" style="rounded=0;whiteSpace=wrap;html=1;" parent="wsFa_iTst2D4UwNhNiId-14" vertex="1">
          <mxGeometry x="30" y="107" width="270" height="40" as="geometry" />
        </mxCell>
        <mxCell id="Mo43KSsvAckhel4JkecI-52" value="Sign up" style="rounded=1;whiteSpace=wrap;html=1;" parent="wsFa_iTst2D4UwNhNiId-14" vertex="1">
          <mxGeometry x="105" y="190" width="120" height="40" as="geometry" />
        </mxCell>
        <mxCell id="wsFa_iTst2D4UwNhNiId-13" value="&lt;font color=&quot;#ff3333&quot;&gt;Error message&lt;/font&gt;" style="text;html=1;strokeColor=none;fillColor=none;align=center;verticalAlign=middle;whiteSpace=wrap;rounded=0;" vertex="1" parent="wsFa_iTst2D4UwNhNiId-14">
          <mxGeometry x="117.5" y="153" width="95" height="30" as="geometry" />
        </mxCell>
        <mxCell id="wsFa_iTst2D4UwNhNiId-15" value="" style="group" vertex="1" connectable="0" parent="1">
          <mxGeometry x="-920" y="1100" width="330" height="260" as="geometry" />
        </mxCell>
        <mxCell id="wsFa_iTst2D4UwNhNiId-16" value="" style="html=1;align=center;verticalAlign=top;rounded=1;absoluteArcSize=1;arcSize=20;dashed=1;whiteSpace=wrap;" vertex="1" parent="wsFa_iTst2D4UwNhNiId-15">
          <mxGeometry width="330" height="260" as="geometry" />
        </mxCell>
        <mxCell id="wsFa_iTst2D4UwNhNiId-17" value="&lt;b&gt;Sign in&lt;br&gt;&lt;/b&gt;" style="text;html=1;strokeColor=none;fillColor=none;align=center;verticalAlign=middle;whiteSpace=wrap;rounded=0;" vertex="1" parent="wsFa_iTst2D4UwNhNiId-15">
          <mxGeometry x="135" y="10" width="60" height="30" as="geometry" />
        </mxCell>
        <mxCell id="wsFa_iTst2D4UwNhNiId-18" value="" style="rounded=0;whiteSpace=wrap;html=1;" vertex="1" parent="wsFa_iTst2D4UwNhNiId-15">
          <mxGeometry x="10" y="45" width="310" height="200" as="geometry" />
        </mxCell>
        <mxCell id="wsFa_iTst2D4UwNhNiId-19" value="email" style="rounded=0;whiteSpace=wrap;html=1;" vertex="1" parent="wsFa_iTst2D4UwNhNiId-15">
          <mxGeometry x="30" y="65" width="270" height="40" as="geometry" />
        </mxCell>
        <mxCell id="wsFa_iTst2D4UwNhNiId-20" value="password" style="rounded=0;whiteSpace=wrap;html=1;" vertex="1" parent="wsFa_iTst2D4UwNhNiId-15">
          <mxGeometry x="30" y="107" width="270" height="40" as="geometry" />
        </mxCell>
        <mxCell id="wsFa_iTst2D4UwNhNiId-21" value="Sign in" style="rounded=1;whiteSpace=wrap;html=1;" vertex="1" parent="wsFa_iTst2D4UwNhNiId-15">
          <mxGeometry x="105" y="190" width="120" height="40" as="geometry" />
        </mxCell>
        <mxCell id="wsFa_iTst2D4UwNhNiId-22" value="&lt;font color=&quot;#ff3333&quot;&gt;Error message&lt;/font&gt;" style="text;html=1;strokeColor=none;fillColor=none;align=center;verticalAlign=middle;whiteSpace=wrap;rounded=0;" vertex="1" parent="wsFa_iTst2D4UwNhNiId-15">
          <mxGeometry x="117.5" y="153" width="95" height="30" as="geometry" />
        </mxCell>
        <mxCell id="wsFa_iTst2D4UwNhNiId-24" value="" style="group" vertex="1" connectable="0" parent="1">
          <mxGeometry x="-430" y="730" width="330" height="260" as="geometry" />
        </mxCell>
        <mxCell id="wsFa_iTst2D4UwNhNiId-25" value="" style="html=1;align=center;verticalAlign=top;rounded=1;absoluteArcSize=1;arcSize=20;dashed=1;whiteSpace=wrap;" vertex="1" parent="wsFa_iTst2D4UwNhNiId-24">
          <mxGeometry width="330" height="260" as="geometry" />
        </mxCell>
        <mxCell id="wsFa_iTst2D4UwNhNiId-26" value="&lt;b&gt;Restore password&lt;br&gt;&lt;/b&gt;" style="text;html=1;strokeColor=none;fillColor=none;align=center;verticalAlign=middle;whiteSpace=wrap;rounded=0;" vertex="1" parent="wsFa_iTst2D4UwNhNiId-24">
          <mxGeometry x="105" y="10" width="115" height="30" as="geometry" />
        </mxCell>
        <mxCell id="wsFa_iTst2D4UwNhNiId-27" value="" style="rounded=0;whiteSpace=wrap;html=1;" vertex="1" parent="wsFa_iTst2D4UwNhNiId-24">
          <mxGeometry x="10" y="45" width="310" height="200" as="geometry" />
        </mxCell>
        <mxCell id="wsFa_iTst2D4UwNhNiId-28" value="email" style="rounded=0;whiteSpace=wrap;html=1;" vertex="1" parent="wsFa_iTst2D4UwNhNiId-24">
          <mxGeometry x="30" y="65" width="270" height="40" as="geometry" />
        </mxCell>
        <mxCell id="wsFa_iTst2D4UwNhNiId-30" value="Restore password" style="rounded=1;whiteSpace=wrap;html=1;" vertex="1" parent="wsFa_iTst2D4UwNhNiId-24">
          <mxGeometry x="105" y="190" width="120" height="40" as="geometry" />
        </mxCell>
        <mxCell id="wsFa_iTst2D4UwNhNiId-31" value="&lt;font color=&quot;#ff3333&quot;&gt;Error message&lt;/font&gt;" style="text;html=1;strokeColor=none;fillColor=none;align=center;verticalAlign=middle;whiteSpace=wrap;rounded=0;" vertex="1" parent="wsFa_iTst2D4UwNhNiId-24">
          <mxGeometry x="117.5" y="133" width="95" height="30" as="geometry" />
        </mxCell>
        <mxCell id="wsFa_iTst2D4UwNhNiId-32" value="" style="group" vertex="1" connectable="0" parent="1">
          <mxGeometry x="-430" y="1100" width="330" height="260" as="geometry" />
        </mxCell>
        <mxCell id="wsFa_iTst2D4UwNhNiId-33" value="" style="html=1;align=center;verticalAlign=top;rounded=1;absoluteArcSize=1;arcSize=20;dashed=1;whiteSpace=wrap;" vertex="1" parent="wsFa_iTst2D4UwNhNiId-32">
          <mxGeometry width="330" height="260" as="geometry" />
        </mxCell>
        <mxCell id="wsFa_iTst2D4UwNhNiId-34" value="&lt;b&gt;Change password&lt;br&gt;&lt;/b&gt;" style="text;html=1;strokeColor=none;fillColor=none;align=center;verticalAlign=middle;whiteSpace=wrap;rounded=0;" vertex="1" parent="wsFa_iTst2D4UwNhNiId-32">
          <mxGeometry x="105" y="10" width="115" height="30" as="geometry" />
        </mxCell>
        <mxCell id="wsFa_iTst2D4UwNhNiId-35" value="" style="rounded=0;whiteSpace=wrap;html=1;" vertex="1" parent="wsFa_iTst2D4UwNhNiId-32">
          <mxGeometry x="10" y="45" width="310" height="200" as="geometry" />
        </mxCell>
        <mxCell id="wsFa_iTst2D4UwNhNiId-36" value="new password" style="rounded=0;whiteSpace=wrap;html=1;" vertex="1" parent="wsFa_iTst2D4UwNhNiId-32">
          <mxGeometry x="30" y="65" width="270" height="40" as="geometry" />
        </mxCell>
        <mxCell id="wsFa_iTst2D4UwNhNiId-37" value="Change password" style="rounded=1;whiteSpace=wrap;html=1;" vertex="1" parent="wsFa_iTst2D4UwNhNiId-32">
          <mxGeometry x="105" y="190" width="120" height="40" as="geometry" />
        </mxCell>
        <mxCell id="wsFa_iTst2D4UwNhNiId-38" value="&lt;font color=&quot;#ff3333&quot;&gt;Error message&lt;/font&gt;" style="text;html=1;strokeColor=none;fillColor=none;align=center;verticalAlign=middle;whiteSpace=wrap;rounded=0;" vertex="1" parent="wsFa_iTst2D4UwNhNiId-32">
          <mxGeometry x="117.5" y="153" width="95" height="30" as="geometry" />
        </mxCell>
        <mxCell id="wsFa_iTst2D4UwNhNiId-39" value="repeat new password" style="rounded=0;whiteSpace=wrap;html=1;" vertex="1" parent="wsFa_iTst2D4UwNhNiId-32">
          <mxGeometry x="30" y="107" width="270" height="40" as="geometry" />
        </mxCell>
        <mxCell id="wsFa_iTst2D4UwNhNiId-40" value="" style="group" vertex="1" connectable="0" parent="1">
          <mxGeometry x="60" y="910" width="330" height="260" as="geometry" />
        </mxCell>
        <mxCell id="wsFa_iTst2D4UwNhNiId-41" value="" style="html=1;align=center;verticalAlign=top;rounded=1;absoluteArcSize=1;arcSize=20;dashed=1;whiteSpace=wrap;" vertex="1" parent="wsFa_iTst2D4UwNhNiId-40">
          <mxGeometry width="330" height="260" as="geometry" />
        </mxCell>
        <mxCell id="wsFa_iTst2D4UwNhNiId-42" value="&lt;b&gt;Info&lt;br&gt;&lt;/b&gt;" style="text;html=1;strokeColor=none;fillColor=none;align=center;verticalAlign=middle;whiteSpace=wrap;rounded=0;" vertex="1" parent="wsFa_iTst2D4UwNhNiId-40">
          <mxGeometry x="105" y="10" width="115" height="30" as="geometry" />
        </mxCell>
        <mxCell id="wsFa_iTst2D4UwNhNiId-43" value="" style="rounded=0;whiteSpace=wrap;html=1;" vertex="1" parent="wsFa_iTst2D4UwNhNiId-40">
          <mxGeometry x="10" y="45" width="310" height="200" as="geometry" />
        </mxCell>
        <mxCell id="wsFa_iTst2D4UwNhNiId-46" value="&lt;font style=&quot;font-size: 30px;&quot;&gt;Info message&lt;/font&gt;" style="text;html=1;strokeColor=none;fillColor=none;align=center;verticalAlign=middle;whiteSpace=wrap;rounded=0;" vertex="1" parent="wsFa_iTst2D4UwNhNiId-40">
          <mxGeometry x="40" y="55" width="250" height="120" as="geometry" />
        </mxCell>
        <mxCell id="wsFa_iTst2D4UwNhNiId-58" value="Return to main page" style="rounded=1;whiteSpace=wrap;html=1;" vertex="1" parent="wsFa_iTst2D4UwNhNiId-40">
          <mxGeometry x="105" y="190" width="120" height="40" as="geometry" />
        </mxCell>
        <mxCell id="wsFa_iTst2D4UwNhNiId-60" value="" style="group" vertex="1" connectable="0" parent="1">
          <mxGeometry x="-905" y="1610" width="330" height="260" as="geometry" />
        </mxCell>
        <mxCell id="wsFa_iTst2D4UwNhNiId-61" value="" style="html=1;align=center;verticalAlign=top;rounded=1;absoluteArcSize=1;arcSize=20;dashed=1;whiteSpace=wrap;" vertex="1" parent="wsFa_iTst2D4UwNhNiId-60">
          <mxGeometry width="330" height="260" as="geometry" />
        </mxCell>
        <mxCell id="wsFa_iTst2D4UwNhNiId-62" value="&lt;b&gt;Main page&lt;br&gt;&lt;/b&gt;" style="text;html=1;strokeColor=none;fillColor=none;align=center;verticalAlign=middle;whiteSpace=wrap;rounded=0;" vertex="1" parent="wsFa_iTst2D4UwNhNiId-60">
          <mxGeometry x="105" y="10" width="115" height="30" as="geometry" />
        </mxCell>
        <mxCell id="wsFa_iTst2D4UwNhNiId-63" value="" style="rounded=0;whiteSpace=wrap;html=1;" vertex="1" parent="wsFa_iTst2D4UwNhNiId-60">
          <mxGeometry x="10" y="45" width="310" height="200" as="geometry" />
        </mxCell>
        <mxCell id="wsFa_iTst2D4UwNhNiId-65" value="Log out" style="rounded=1;whiteSpace=wrap;html=1;" vertex="1" parent="wsFa_iTst2D4UwNhNiId-60">
          <mxGeometry x="105" y="190" width="120" height="40" as="geometry" />
        </mxCell>
        <mxCell id="wsFa_iTst2D4UwNhNiId-66" value="" style="shape=umlActor;verticalLabelPosition=bottom;verticalAlign=top;html=1;outlineConnect=0;" vertex="1" parent="wsFa_iTst2D4UwNhNiId-60">
          <mxGeometry x="40" y="100" width="50" height="90" as="geometry" />
        </mxCell>
        <mxCell id="wsFa_iTst2D4UwNhNiId-68" value="Hi!" style="whiteSpace=wrap;html=1;shape=mxgraph.basic.oval_callout" vertex="1" parent="wsFa_iTst2D4UwNhNiId-60">
          <mxGeometry x="80" y="50" width="100" height="60" as="geometry" />
        </mxCell>
        <mxCell id="wsFa_iTst2D4UwNhNiId-69" value="" style="ellipse;fillColor=strokeColor;html=1;" vertex="1" parent="1">
          <mxGeometry x="-1175" y="1620" width="30" height="30" as="geometry" />
        </mxCell>
        <mxCell id="wsFa_iTst2D4UwNhNiId-79" value="" style="endArrow=open;html=1;rounded=0;align=center;verticalAlign=bottom;endFill=0;labelBackgroundColor=none;exitX=0.5;exitY=0;exitDx=0;exitDy=0;entryX=0.5;entryY=1;entryDx=0;entryDy=0;" edge="1" parent="1" source="wsFa_iTst2D4UwNhNiId-69" target="wsFa_iTst2D4UwNhNiId-81">
          <mxGeometry relative="1" as="geometry">
            <mxPoint x="-1290" y="1564.33" as="sourcePoint" />
            <mxPoint x="-1130" y="1564.33" as="targetPoint" />
          </mxGeometry>
        </mxCell>
        <mxCell id="wsFa_iTst2D4UwNhNiId-81" value="" style="rhombus;whiteSpace=wrap;html=1;" vertex="1" parent="1">
          <mxGeometry x="-1170" y="1550" width="20" height="10" as="geometry" />
        </mxCell>
        <mxCell id="wsFa_iTst2D4UwNhNiId-83" value="[role=Client]" style="endArrow=open;html=1;rounded=0;align=center;verticalAlign=bottom;endFill=0;labelBackgroundColor=none;exitX=1;exitY=0.5;exitDx=0;exitDy=0;entryX=0;entryY=0.5;entryDx=0;entryDy=0;" edge="1" parent="1" source="wsFa_iTst2D4UwNhNiId-81" target="wsFa_iTst2D4UwNhNiId-86">
          <mxGeometry relative="1" as="geometry">
            <mxPoint x="-1153" y="1554" as="sourcePoint" />
            <mxPoint x="-983" y="1564" as="targetPoint" />
          </mxGeometry>
        </mxCell>
        <mxCell id="wsFa_iTst2D4UwNhNiId-84" value="[else]" style="endArrow=open;html=1;rounded=0;align=center;verticalAlign=bottom;endFill=0;labelBackgroundColor=none;exitX=0.5;exitY=0;exitDx=0;exitDy=0;entryX=0.5;entryY=1;entryDx=0;entryDy=0;" edge="1" parent="1" source="wsFa_iTst2D4UwNhNiId-81" target="wsFa_iTst2D4UwNhNiId-85">
          <mxGeometry y="-20" relative="1" as="geometry">
            <mxPoint x="-1140" y="1485" as="sourcePoint" />
            <mxPoint x="-1160" y="1370" as="targetPoint" />
            <mxPoint as="offset" />
          </mxGeometry>
        </mxCell>
        <mxCell id="wsFa_iTst2D4UwNhNiId-85" value="" style="rhombus;whiteSpace=wrap;html=1;" vertex="1" parent="1">
          <mxGeometry x="-1170" y="1470" width="20" height="10" as="geometry" />
        </mxCell>
        <mxCell id="wsFa_iTst2D4UwNhNiId-86" value="" style="rhombus;whiteSpace=wrap;html=1;" vertex="1" parent="1">
          <mxGeometry x="-750" y="1550" width="20" height="10" as="geometry" />
        </mxCell>
        <mxCell id="wsFa_iTst2D4UwNhNiId-87" value="" style="endArrow=open;html=1;rounded=0;align=center;verticalAlign=bottom;endFill=0;labelBackgroundColor=none;exitX=0.5;exitY=1;exitDx=0;exitDy=0;entryX=0.5;entryY=0;entryDx=0;entryDy=0;" edge="1" parent="1" source="wsFa_iTst2D4UwNhNiId-86" target="wsFa_iTst2D4UwNhNiId-61">
          <mxGeometry relative="1" as="geometry">
            <mxPoint x="-1140" y="1565" as="sourcePoint" />
            <mxPoint x="-740" y="1565" as="targetPoint" />
          </mxGeometry>
        </mxCell>
        <mxCell id="wsFa_iTst2D4UwNhNiId-88" value="&quot;Log out&quot;" style="endArrow=open;html=1;rounded=0;align=center;verticalAlign=bottom;endFill=0;labelBackgroundColor=none;exitX=0;exitY=0.75;exitDx=0;exitDy=0;edgeStyle=orthogonalEdgeStyle;entryX=0.5;entryY=1;entryDx=0;entryDy=0;" edge="1" parent="1" source="wsFa_iTst2D4UwNhNiId-61" target="wsFa_iTst2D4UwNhNiId-98">
          <mxGeometry x="-0.7855" y="-5" relative="1" as="geometry">
            <mxPoint x="-1140" y="1485" as="sourcePoint" />
            <mxPoint x="-1070" y="1190" as="targetPoint" />
            <mxPoint as="offset" />
          </mxGeometry>
        </mxCell>
        <mxCell id="wsFa_iTst2D4UwNhNiId-89" value="" style="rhombus;whiteSpace=wrap;html=1;" vertex="1" parent="1">
          <mxGeometry x="-1170" y="1160" width="20" height="10" as="geometry" />
        </mxCell>
        <mxCell id="wsFa_iTst2D4UwNhNiId-90" value="[else]" style="endArrow=open;html=1;rounded=0;align=center;verticalAlign=bottom;endFill=0;labelBackgroundColor=none;exitX=0.5;exitY=0;exitDx=0;exitDy=0;entryX=0.5;entryY=1;entryDx=0;entryDy=0;" edge="1" parent="1" source="wsFa_iTst2D4UwNhNiId-85" target="wsFa_iTst2D4UwNhNiId-89">
          <mxGeometry y="-20" relative="1" as="geometry">
            <mxPoint x="-1150" y="1480" as="sourcePoint" />
            <mxPoint x="-1150" y="1380" as="targetPoint" />
            <mxPoint as="offset" />
          </mxGeometry>
        </mxCell>
        <mxCell id="wsFa_iTst2D4UwNhNiId-92" value="" style="rhombus;whiteSpace=wrap;html=1;" vertex="1" parent="1">
          <mxGeometry x="-1170" y="925" width="20" height="10" as="geometry" />
        </mxCell>
        <mxCell id="wsFa_iTst2D4UwNhNiId-93" value="[else]" style="endArrow=open;html=1;rounded=0;align=center;verticalAlign=bottom;endFill=0;labelBackgroundColor=none;exitX=0.5;exitY=0;exitDx=0;exitDy=0;entryX=0.5;entryY=1;entryDx=0;entryDy=0;" edge="1" parent="1" target="wsFa_iTst2D4UwNhNiId-92" source="wsFa_iTst2D4UwNhNiId-89">
          <mxGeometry y="-20" relative="1" as="geometry">
            <mxPoint x="-1160" y="1140" as="sourcePoint" />
            <mxPoint x="-1150" y="1160" as="targetPoint" />
            <mxPoint as="offset" />
          </mxGeometry>
        </mxCell>
        <mxCell id="wsFa_iTst2D4UwNhNiId-94" value="" style="rhombus;whiteSpace=wrap;html=1;" vertex="1" parent="1">
          <mxGeometry x="-1170" y="600" width="20" height="10" as="geometry" />
        </mxCell>
        <mxCell id="wsFa_iTst2D4UwNhNiId-95" value="[else]" style="endArrow=open;html=1;rounded=0;align=center;verticalAlign=bottom;endFill=0;labelBackgroundColor=none;exitX=0.5;exitY=0;exitDx=0;exitDy=0;entryX=0.5;entryY=1;entryDx=0;entryDy=0;" edge="1" parent="1" target="wsFa_iTst2D4UwNhNiId-94" source="wsFa_iTst2D4UwNhNiId-92">
          <mxGeometry y="-20" relative="1" as="geometry">
            <mxPoint x="-1160" y="930" as="sourcePoint" />
            <mxPoint x="-1150" y="930" as="targetPoint" />
            <mxPoint as="offset" />
          </mxGeometry>
        </mxCell>
        <mxCell id="wsFa_iTst2D4UwNhNiId-97" value="[else]" style="endArrow=open;html=1;rounded=0;align=center;verticalAlign=bottom;endFill=0;labelBackgroundColor=none;exitX=0.5;exitY=0;exitDx=0;exitDy=0;entryX=0.5;entryY=1;entryDx=0;entryDy=0;" edge="1" parent="1" target="wsFa_iTst2D4UwNhNiId-123" source="wsFa_iTst2D4UwNhNiId-94">
          <mxGeometry y="-20" relative="1" as="geometry">
            <mxPoint x="-1160" y="680" as="sourcePoint" />
            <mxPoint x="-1160" y="470" as="targetPoint" />
            <mxPoint as="offset" />
          </mxGeometry>
        </mxCell>
        <mxCell id="wsFa_iTst2D4UwNhNiId-98" value="" style="rhombus;whiteSpace=wrap;html=1;" vertex="1" parent="1">
          <mxGeometry x="-1080" y="1160" width="20" height="10" as="geometry" />
        </mxCell>
        <mxCell id="wsFa_iTst2D4UwNhNiId-99" value="[link to &lt;br&gt;&lt;b&gt;sign in&lt;/b&gt;]" style="endArrow=open;html=1;rounded=0;align=center;verticalAlign=bottom;endFill=0;labelBackgroundColor=none;exitX=1;exitY=0.5;exitDx=0;exitDy=0;entryX=0;entryY=0.5;entryDx=0;entryDy=0;" edge="1" parent="1" source="wsFa_iTst2D4UwNhNiId-89" target="wsFa_iTst2D4UwNhNiId-98">
          <mxGeometry x="-0.1429" y="-35" relative="1" as="geometry">
            <mxPoint x="-1150" y="1370" as="sourcePoint" />
            <mxPoint x="-1150" y="1180" as="targetPoint" />
            <mxPoint as="offset" />
          </mxGeometry>
        </mxCell>
        <mxCell id="wsFa_iTst2D4UwNhNiId-100" value="" style="ellipse;whiteSpace=wrap;html=1;aspect=fixed;" vertex="1" parent="1">
          <mxGeometry x="-990" y="1155" width="20" height="20" as="geometry" />
        </mxCell>
        <mxCell id="wsFa_iTst2D4UwNhNiId-101" value="" style="endArrow=open;html=1;rounded=0;align=center;verticalAlign=bottom;endFill=0;labelBackgroundColor=none;exitX=1;exitY=0.5;exitDx=0;exitDy=0;entryX=0;entryY=0.5;entryDx=0;entryDy=0;" edge="1" parent="1" source="wsFa_iTst2D4UwNhNiId-98" target="wsFa_iTst2D4UwNhNiId-100">
          <mxGeometry x="-0.1429" y="-35" relative="1" as="geometry">
            <mxPoint x="-1080" y="1175" as="sourcePoint" />
            <mxPoint x="-1010" y="1175" as="targetPoint" />
            <mxPoint as="offset" />
          </mxGeometry>
        </mxCell>
        <mxCell id="wsFa_iTst2D4UwNhNiId-102" value="" style="endArrow=open;html=1;rounded=0;align=center;verticalAlign=bottom;endFill=0;labelBackgroundColor=none;exitX=1;exitY=0.5;exitDx=0;exitDy=0;entryX=0;entryY=0.25;entryDx=0;entryDy=0;" edge="1" parent="1" source="wsFa_iTst2D4UwNhNiId-100" target="wsFa_iTst2D4UwNhNiId-16">
          <mxGeometry x="-0.1429" y="-35" relative="1" as="geometry">
            <mxPoint x="-1050" y="1175" as="sourcePoint" />
            <mxPoint x="-980" y="1175" as="targetPoint" />
            <mxPoint as="offset" />
          </mxGeometry>
        </mxCell>
        <mxCell id="wsFa_iTst2D4UwNhNiId-103" value="Return to &lt;br&gt;&lt;b&gt;main page&lt;/b&gt;" style="endArrow=open;html=1;rounded=0;align=center;verticalAlign=bottom;endFill=0;labelBackgroundColor=none;exitX=0;exitY=0.5;exitDx=0;exitDy=0;entryX=0.5;entryY=0;entryDx=0;entryDy=0;edgeStyle=orthogonalEdgeStyle;" edge="1" parent="1" source="wsFa_iTst2D4UwNhNiId-2" target="wsFa_iTst2D4UwNhNiId-98">
          <mxGeometry x="-0.5876" relative="1" as="geometry">
            <mxPoint x="-1140" y="1175" as="sourcePoint" />
            <mxPoint x="-1070" y="1175" as="targetPoint" />
            <mxPoint as="offset" />
          </mxGeometry>
        </mxCell>
        <mxCell id="wsFa_iTst2D4UwNhNiId-104" value="[link to &lt;br&gt;&lt;b&gt;sign up&lt;/b&gt;]" style="endArrow=open;html=1;rounded=0;align=center;verticalAlign=bottom;endFill=0;labelBackgroundColor=none;exitX=1;exitY=0.5;exitDx=0;exitDy=0;entryX=0;entryY=0.5;entryDx=0;entryDy=0;" edge="1" parent="1" source="wsFa_iTst2D4UwNhNiId-92" target="wsFa_iTst2D4UwNhNiId-105">
          <mxGeometry x="-0.1429" y="-35" relative="1" as="geometry">
            <mxPoint x="-1140" y="1165" as="sourcePoint" />
            <mxPoint x="-1070" y="935" as="targetPoint" />
            <mxPoint as="offset" />
          </mxGeometry>
        </mxCell>
        <mxCell id="wsFa_iTst2D4UwNhNiId-105" value="" style="rhombus;whiteSpace=wrap;html=1;" vertex="1" parent="1">
          <mxGeometry x="-1080" y="925" width="20" height="10" as="geometry" />
        </mxCell>
        <mxCell id="wsFa_iTst2D4UwNhNiId-106" value="" style="ellipse;whiteSpace=wrap;html=1;aspect=fixed;" vertex="1" parent="1">
          <mxGeometry x="-990" y="920" width="20" height="20" as="geometry" />
        </mxCell>
        <mxCell id="wsFa_iTst2D4UwNhNiId-107" value="" style="endArrow=open;html=1;rounded=0;align=center;verticalAlign=bottom;endFill=0;labelBackgroundColor=none;exitX=1;exitY=0.5;exitDx=0;exitDy=0;entryX=0;entryY=0.5;entryDx=0;entryDy=0;" edge="1" parent="1" source="wsFa_iTst2D4UwNhNiId-105" target="wsFa_iTst2D4UwNhNiId-106">
          <mxGeometry x="-0.1429" y="-35" relative="1" as="geometry">
            <mxPoint x="-1080" y="940" as="sourcePoint" />
            <mxPoint x="-1010" y="940" as="targetPoint" />
            <mxPoint as="offset" />
          </mxGeometry>
        </mxCell>
        <mxCell id="wsFa_iTst2D4UwNhNiId-108" value="Return to &lt;br&gt;&lt;b&gt;sign up&lt;/b&gt;" style="endArrow=open;html=1;rounded=0;align=center;verticalAlign=bottom;endFill=0;labelBackgroundColor=none;exitX=0;exitY=0.25;exitDx=0;exitDy=0;entryX=0.5;entryY=0;entryDx=0;entryDy=0;edgeStyle=orthogonalEdgeStyle;" edge="1" parent="1" target="wsFa_iTst2D4UwNhNiId-105" source="wsFa_iTst2D4UwNhNiId-2">
          <mxGeometry x="-0.5033" relative="1" as="geometry">
            <mxPoint x="-980" y="783" as="sourcePoint" />
            <mxPoint x="-1070" y="950" as="targetPoint" />
            <mxPoint as="offset" />
            <Array as="points">
              <mxPoint x="-980" y="850" />
              <mxPoint x="-1070" y="850" />
            </Array>
          </mxGeometry>
        </mxCell>
        <mxCell id="wsFa_iTst2D4UwNhNiId-110" value="[link to &lt;br&gt;&lt;b&gt;restore password&lt;/b&gt;]" style="endArrow=open;html=1;rounded=0;align=center;verticalAlign=bottom;endFill=0;labelBackgroundColor=none;exitX=1;exitY=0.5;exitDx=0;exitDy=0;entryX=0;entryY=0.5;entryDx=0;entryDy=0;" edge="1" parent="1" source="wsFa_iTst2D4UwNhNiId-94" target="wsFa_iTst2D4UwNhNiId-111">
          <mxGeometry x="-0.1429" y="-35" relative="1" as="geometry">
            <mxPoint x="-1140" y="950" as="sourcePoint" />
            <mxPoint x="-690" y="575" as="targetPoint" />
            <mxPoint as="offset" />
          </mxGeometry>
        </mxCell>
        <mxCell id="wsFa_iTst2D4UwNhNiId-111" value="" style="rhombus;whiteSpace=wrap;html=1;" vertex="1" parent="1">
          <mxGeometry x="-630" y="600" width="20" height="10" as="geometry" />
        </mxCell>
        <mxCell id="wsFa_iTst2D4UwNhNiId-112" value="" style="ellipse;whiteSpace=wrap;html=1;aspect=fixed;" vertex="1" parent="1">
          <mxGeometry x="-275" y="650" width="20" height="20" as="geometry" />
        </mxCell>
        <mxCell id="wsFa_iTst2D4UwNhNiId-113" value="" style="endArrow=open;html=1;rounded=0;align=center;verticalAlign=bottom;endFill=0;labelBackgroundColor=none;exitX=1;exitY=0.5;exitDx=0;exitDy=0;entryX=0.5;entryY=0;entryDx=0;entryDy=0;edgeStyle=orthogonalEdgeStyle;" edge="1" parent="1" source="wsFa_iTst2D4UwNhNiId-111" target="wsFa_iTst2D4UwNhNiId-112">
          <mxGeometry x="-0.1429" y="-35" relative="1" as="geometry">
            <mxPoint x="-550" y="580" as="sourcePoint" />
            <mxPoint x="-480" y="580" as="targetPoint" />
            <mxPoint as="offset" />
          </mxGeometry>
        </mxCell>
        <mxCell id="wsFa_iTst2D4UwNhNiId-114" value="Return to &lt;br&gt;&lt;b&gt;restore password&lt;/b&gt;" style="endArrow=open;html=1;rounded=0;align=center;verticalAlign=bottom;endFill=0;labelBackgroundColor=none;exitX=0.25;exitY=0;exitDx=0;exitDy=0;entryX=0.5;entryY=1;entryDx=0;entryDy=0;edgeStyle=orthogonalEdgeStyle;" edge="1" parent="1" target="wsFa_iTst2D4UwNhNiId-111" source="wsFa_iTst2D4UwNhNiId-2">
          <mxGeometry x="-0.5227" y="-50" relative="1" as="geometry">
            <mxPoint x="-450" y="434" as="sourcePoint" />
            <mxPoint x="-540" y="580" as="targetPoint" />
            <mxPoint as="offset" />
            <Array as="points">
              <mxPoint x="-620" y="660" />
            </Array>
          </mxGeometry>
        </mxCell>
        <mxCell id="wsFa_iTst2D4UwNhNiId-120" value="" style="endArrow=open;html=1;rounded=0;align=center;verticalAlign=bottom;endFill=0;labelBackgroundColor=none;exitX=1;exitY=0.5;exitDx=0;exitDy=0;entryX=0;entryY=0.75;entryDx=0;entryDy=0;" edge="1" parent="1" source="wsFa_iTst2D4UwNhNiId-106" target="wsFa_iTst2D4UwNhNiId-12">
          <mxGeometry x="-0.1429" y="-35" relative="1" as="geometry">
            <mxPoint x="-960" y="1175" as="sourcePoint" />
            <mxPoint x="-910" y="1175" as="targetPoint" />
            <mxPoint as="offset" />
          </mxGeometry>
        </mxCell>
        <mxCell id="wsFa_iTst2D4UwNhNiId-121" value="" style="endArrow=open;html=1;rounded=0;align=center;verticalAlign=bottom;endFill=0;labelBackgroundColor=none;exitX=0.5;exitY=1;exitDx=0;exitDy=0;entryX=0.5;entryY=0;entryDx=0;entryDy=0;" edge="1" parent="1" source="wsFa_iTst2D4UwNhNiId-112" target="wsFa_iTst2D4UwNhNiId-25">
          <mxGeometry x="-0.1429" y="-35" relative="1" as="geometry">
            <mxPoint x="-520" y="580" as="sourcePoint" />
            <mxPoint x="-350" y="670" as="targetPoint" />
            <mxPoint as="offset" />
          </mxGeometry>
        </mxCell>
        <mxCell id="wsFa_iTst2D4UwNhNiId-123" value="404" style="html=1;align=center;verticalAlign=top;rounded=1;absoluteArcSize=1;arcSize=20;whiteSpace=wrap;shadow=0;fillColor=#fff2cc;strokeColor=#d6b656;opacity=80;" vertex="1" parent="1">
          <mxGeometry x="-1195" y="490" width="70" height="35" as="geometry" />
        </mxCell>
        <mxCell id="wsFa_iTst2D4UwNhNiId-124" value="[link to&amp;nbsp;&lt;br&gt;&lt;b&gt;change password]&lt;br&gt;&lt;/b&gt;" style="endArrow=open;html=1;rounded=0;align=center;verticalAlign=bottom;endFill=0;labelBackgroundColor=none;exitX=1;exitY=0.5;exitDx=0;exitDy=0;entryX=0.5;entryY=1;entryDx=0;entryDy=0;edgeStyle=orthogonalEdgeStyle;" edge="1" parent="1" source="wsFa_iTst2D4UwNhNiId-85" target="wsFa_iTst2D4UwNhNiId-125">
          <mxGeometry relative="1" as="geometry">
            <mxPoint x="-1140" y="1565" as="sourcePoint" />
            <mxPoint x="-660" y="1480" as="targetPoint" />
          </mxGeometry>
        </mxCell>
        <mxCell id="wsFa_iTst2D4UwNhNiId-125" value="" style="ellipse;whiteSpace=wrap;html=1;aspect=fixed;" vertex="1" parent="1">
          <mxGeometry x="-275" y="1410" width="20" height="20" as="geometry" />
        </mxCell>
        <mxCell id="wsFa_iTst2D4UwNhNiId-126" value="" style="endArrow=open;html=1;rounded=0;align=center;verticalAlign=bottom;endFill=0;labelBackgroundColor=none;exitX=0.5;exitY=0;exitDx=0;exitDy=0;entryX=0.5;entryY=1;entryDx=0;entryDy=0;" edge="1" parent="1" source="wsFa_iTst2D4UwNhNiId-125" target="wsFa_iTst2D4UwNhNiId-33">
          <mxGeometry x="-0.1429" y="-35" relative="1" as="geometry">
            <mxPoint x="-960" y="1175" as="sourcePoint" />
            <mxPoint x="-910" y="1175" as="targetPoint" />
            <mxPoint as="offset" />
          </mxGeometry>
        </mxCell>
        <mxCell id="wsFa_iTst2D4UwNhNiId-127" value="" style="shape=sumEllipse;perimeter=ellipsePerimeter;whiteSpace=wrap;html=1;backgroundOutline=1;" vertex="1" parent="1">
          <mxGeometry x="-530" y="1410" width="20" height="20" as="geometry" />
        </mxCell>
        <mxCell id="wsFa_iTst2D4UwNhNiId-128" value="" style="endArrow=open;html=1;rounded=0;align=center;verticalAlign=bottom;endFill=0;labelBackgroundColor=none;exitX=0.5;exitY=1;exitDx=0;exitDy=0;entryX=1;entryY=0.5;entryDx=0;entryDy=0;edgeStyle=orthogonalEdgeStyle;" edge="1" parent="1" source="wsFa_iTst2D4UwNhNiId-127" target="wsFa_iTst2D4UwNhNiId-86">
          <mxGeometry relative="1" as="geometry">
            <mxPoint x="-730" y="1570" as="sourcePoint" />
            <mxPoint x="-730" y="1620" as="targetPoint" />
          </mxGeometry>
        </mxCell>
        <mxCell id="wsFa_iTst2D4UwNhNiId-129" value="" style="rhombus;whiteSpace=wrap;html=1;" vertex="1" parent="1">
          <mxGeometry x="-530" y="1290" width="20" height="10" as="geometry" />
        </mxCell>
        <mxCell id="wsFa_iTst2D4UwNhNiId-130" value="&quot;Sign in&quot;" style="endArrow=open;html=1;rounded=0;align=center;verticalAlign=bottom;endFill=0;labelBackgroundColor=none;exitX=1;exitY=0.75;exitDx=0;exitDy=0;entryX=0;entryY=0.5;entryDx=0;entryDy=0;" edge="1" parent="1" source="wsFa_iTst2D4UwNhNiId-16" target="wsFa_iTst2D4UwNhNiId-129">
          <mxGeometry y="-20" relative="1" as="geometry">
            <mxPoint x="-1150" y="1560" as="sourcePoint" />
            <mxPoint x="-1150" y="1490" as="targetPoint" />
            <mxPoint as="offset" />
          </mxGeometry>
        </mxCell>
        <mxCell id="wsFa_iTst2D4UwNhNiId-131" value="[error]" style="endArrow=open;html=1;rounded=0;align=center;verticalAlign=bottom;endFill=0;labelBackgroundColor=none;exitX=0.5;exitY=0;exitDx=0;exitDy=0;entryX=1;entryY=0.5;entryDx=0;entryDy=0;edgeStyle=orthogonalEdgeStyle;" edge="1" parent="1" source="wsFa_iTst2D4UwNhNiId-129" target="wsFa_iTst2D4UwNhNiId-16">
          <mxGeometry x="0.0767" relative="1" as="geometry">
            <mxPoint x="-580" y="1305" as="sourcePoint" />
            <mxPoint x="-520" y="1305" as="targetPoint" />
            <mxPoint as="offset" />
          </mxGeometry>
        </mxCell>
        <mxCell id="wsFa_iTst2D4UwNhNiId-132" value="[ok]" style="endArrow=open;html=1;rounded=0;align=center;verticalAlign=bottom;endFill=0;labelBackgroundColor=none;exitX=0.5;exitY=1;exitDx=0;exitDy=0;entryX=0.5;entryY=0;entryDx=0;entryDy=0;" edge="1" parent="1" source="wsFa_iTst2D4UwNhNiId-129" target="wsFa_iTst2D4UwNhNiId-127">
          <mxGeometry x="0.0909" y="-10" relative="1" as="geometry">
            <mxPoint x="-580" y="1305" as="sourcePoint" />
            <mxPoint x="-520" y="1305" as="targetPoint" />
            <mxPoint as="offset" />
          </mxGeometry>
        </mxCell>
        <mxCell id="wsFa_iTst2D4UwNhNiId-133" value="" style="rhombus;whiteSpace=wrap;html=1;" vertex="1" parent="1">
          <mxGeometry x="-540" y="920" width="20" height="10" as="geometry" />
        </mxCell>
        <mxCell id="wsFa_iTst2D4UwNhNiId-134" value="&quot;Sign up&quot;" style="endArrow=open;html=1;rounded=0;align=center;verticalAlign=bottom;endFill=0;labelBackgroundColor=none;exitX=1;exitY=0.75;exitDx=0;exitDy=0;entryX=0;entryY=0.5;entryDx=0;entryDy=0;" edge="1" parent="1" target="wsFa_iTst2D4UwNhNiId-133" source="wsFa_iTst2D4UwNhNiId-12">
          <mxGeometry y="-20" relative="1" as="geometry">
            <mxPoint x="-540" y="1140" as="sourcePoint" />
            <mxPoint x="-1100" y="1335" as="targetPoint" />
            <mxPoint as="offset" />
          </mxGeometry>
        </mxCell>
        <mxCell id="wsFa_iTst2D4UwNhNiId-135" value="[error]" style="endArrow=open;html=1;rounded=0;align=center;verticalAlign=bottom;endFill=0;labelBackgroundColor=none;exitX=0.5;exitY=0;exitDx=0;exitDy=0;entryX=1;entryY=0.25;entryDx=0;entryDy=0;edgeStyle=orthogonalEdgeStyle;" edge="1" parent="1" source="wsFa_iTst2D4UwNhNiId-133" target="wsFa_iTst2D4UwNhNiId-12">
          <mxGeometry x="-0.027" y="20" relative="1" as="geometry">
            <mxPoint x="-530" y="1150" as="sourcePoint" />
            <mxPoint x="-540" y="1075" as="targetPoint" />
            <mxPoint as="offset" />
          </mxGeometry>
        </mxCell>
        <mxCell id="wsFa_iTst2D4UwNhNiId-136" value="[ok]" style="endArrow=open;html=1;rounded=0;align=center;verticalAlign=bottom;endFill=0;labelBackgroundColor=none;exitX=0.5;exitY=1;exitDx=0;exitDy=0;entryX=1;entryY=0.25;entryDx=0;entryDy=0;edgeStyle=orthogonalEdgeStyle;" edge="1" parent="1" source="wsFa_iTst2D4UwNhNiId-133" target="wsFa_iTst2D4UwNhNiId-16">
          <mxGeometry x="0.0909" y="-10" relative="1" as="geometry">
            <mxPoint x="-530" y="1150" as="sourcePoint" />
            <mxPoint x="-470" y="1255" as="targetPoint" />
            <mxPoint as="offset" />
          </mxGeometry>
        </mxCell>
        <mxCell id="wsFa_iTst2D4UwNhNiId-142" value="" style="rhombus;whiteSpace=wrap;html=1;" vertex="1" parent="1">
          <mxGeometry x="20" y="1290" width="20" height="10" as="geometry" />
        </mxCell>
        <mxCell id="wsFa_iTst2D4UwNhNiId-143" value="&quot;Change password&quot;" style="endArrow=open;html=1;rounded=0;align=center;verticalAlign=bottom;endFill=0;labelBackgroundColor=none;exitX=1;exitY=0.75;exitDx=0;exitDy=0;entryX=0;entryY=0.5;entryDx=0;entryDy=0;" edge="1" parent="1" target="wsFa_iTst2D4UwNhNiId-142" source="wsFa_iTst2D4UwNhNiId-33">
          <mxGeometry y="-20" relative="1" as="geometry">
            <mxPoint x="-60" y="1240" as="sourcePoint" />
            <mxPoint x="-620" y="1435" as="targetPoint" />
            <mxPoint as="offset" />
          </mxGeometry>
        </mxCell>
        <mxCell id="wsFa_iTst2D4UwNhNiId-144" value="[error]" style="endArrow=open;html=1;rounded=0;align=center;verticalAlign=bottom;endFill=0;labelBackgroundColor=none;exitX=0.5;exitY=0;exitDx=0;exitDy=0;entryX=1;entryY=0.25;entryDx=0;entryDy=0;edgeStyle=orthogonalEdgeStyle;" edge="1" parent="1" source="wsFa_iTst2D4UwNhNiId-142" target="wsFa_iTst2D4UwNhNiId-33">
          <mxGeometry x="-0.7647" y="20" relative="1" as="geometry">
            <mxPoint x="-50" y="1250" as="sourcePoint" />
            <mxPoint x="-60" y="1175" as="targetPoint" />
            <mxPoint as="offset" />
          </mxGeometry>
        </mxCell>
        <mxCell id="wsFa_iTst2D4UwNhNiId-145" value="[ok]" style="endArrow=open;html=1;rounded=0;align=center;verticalAlign=bottom;endFill=0;labelBackgroundColor=none;exitX=1;exitY=0.5;exitDx=0;exitDy=0;entryX=0.5;entryY=1;entryDx=0;entryDy=0;edgeStyle=orthogonalEdgeStyle;" edge="1" parent="1" source="wsFa_iTst2D4UwNhNiId-142" target="wsFa_iTst2D4UwNhNiId-41">
          <mxGeometry x="-0.5625" y="-15" relative="1" as="geometry">
            <mxPoint x="-50" y="1250" as="sourcePoint" />
            <mxPoint x="10" y="1355" as="targetPoint" />
            <mxPoint as="offset" />
          </mxGeometry>
        </mxCell>
        <mxCell id="wsFa_iTst2D4UwNhNiId-146" value="" style="rhombus;whiteSpace=wrap;html=1;" vertex="1" parent="1">
          <mxGeometry x="10" y="855" width="20" height="10" as="geometry" />
        </mxCell>
        <mxCell id="wsFa_iTst2D4UwNhNiId-147" value="&quot;Restore password&quot;" style="endArrow=open;html=1;rounded=0;align=center;verticalAlign=bottom;endFill=0;labelBackgroundColor=none;exitX=1;exitY=0.5;exitDx=0;exitDy=0;entryX=0;entryY=0.5;entryDx=0;entryDy=0;" edge="1" parent="1" target="wsFa_iTst2D4UwNhNiId-146" source="wsFa_iTst2D4UwNhNiId-25">
          <mxGeometry y="-20" relative="1" as="geometry">
            <mxPoint x="-60" y="825" as="sourcePoint" />
            <mxPoint x="-620" y="1020" as="targetPoint" />
            <mxPoint as="offset" />
          </mxGeometry>
        </mxCell>
        <mxCell id="wsFa_iTst2D4UwNhNiId-148" value="[error]" style="endArrow=open;html=1;rounded=0;align=center;verticalAlign=bottom;endFill=0;labelBackgroundColor=none;exitX=0.5;exitY=0;exitDx=0;exitDy=0;entryX=1;entryY=0.25;entryDx=0;entryDy=0;edgeStyle=orthogonalEdgeStyle;" edge="1" parent="1" source="wsFa_iTst2D4UwNhNiId-146" target="wsFa_iTst2D4UwNhNiId-25">
          <mxGeometry x="-0.8234" y="-20" relative="1" as="geometry">
            <mxPoint x="-50" y="835" as="sourcePoint" />
            <mxPoint x="-60" y="760" as="targetPoint" />
            <mxPoint as="offset" />
            <Array as="points">
              <mxPoint x="20" y="795" />
            </Array>
          </mxGeometry>
        </mxCell>
        <mxCell id="wsFa_iTst2D4UwNhNiId-149" value="[ok]" style="endArrow=open;html=1;rounded=0;align=center;verticalAlign=bottom;endFill=0;labelBackgroundColor=none;exitX=1;exitY=0.5;exitDx=0;exitDy=0;entryX=0.5;entryY=0;entryDx=0;entryDy=0;edgeStyle=orthogonalEdgeStyle;" edge="1" parent="1" source="wsFa_iTst2D4UwNhNiId-146" target="wsFa_iTst2D4UwNhNiId-41">
          <mxGeometry x="-0.6279" y="-20" relative="1" as="geometry">
            <mxPoint x="-50" y="835" as="sourcePoint" />
            <mxPoint x="10" y="940" as="targetPoint" />
            <mxPoint as="offset" />
          </mxGeometry>
        </mxCell>
        <mxCell id="wsFa_iTst2D4UwNhNiId-150" value="Message &quot;Your password was changed&quot;" style="shape=note2;boundedLbl=1;whiteSpace=wrap;html=1;size=25;verticalAlign=top;align=center;" vertex="1" parent="1">
          <mxGeometry x="460" y="1190" width="130" height="80" as="geometry" />
        </mxCell>
        <mxCell id="wsFa_iTst2D4UwNhNiId-151" value="Message &quot;Check you email for a link to change password&quot;" style="shape=note2;boundedLbl=1;whiteSpace=wrap;html=1;size=25;verticalAlign=top;align=center;" vertex="1" parent="1">
          <mxGeometry x="460" y="850" width="130" height="80" as="geometry" />
        </mxCell>
        <mxCell id="wsFa_iTst2D4UwNhNiId-152" value="" style="endArrow=none;startArrow=none;endFill=0;startFill=0;endSize=8;html=1;verticalAlign=bottom;labelBackgroundColor=none;strokeWidth=1;rounded=0;dashed=1;dashPattern=8 8;entryX=0;entryY=0.5;entryDx=0;entryDy=0;entryPerimeter=0;edgeStyle=orthogonalEdgeStyle;" edge="1" parent="1" target="wsFa_iTst2D4UwNhNiId-151">
          <mxGeometry width="160" relative="1" as="geometry">
            <mxPoint x="90" y="870" as="sourcePoint" />
            <mxPoint x="170" y="1080" as="targetPoint" />
          </mxGeometry>
        </mxCell>
        <mxCell id="wsFa_iTst2D4UwNhNiId-153" value="" style="endArrow=none;startArrow=none;endFill=0;startFill=0;endSize=8;html=1;verticalAlign=bottom;labelBackgroundColor=none;strokeWidth=1;rounded=0;dashed=1;dashPattern=8 8;entryX=0;entryY=0.5;entryDx=0;entryDy=0;entryPerimeter=0;edgeStyle=orthogonalEdgeStyle;" edge="1" parent="1" target="wsFa_iTst2D4UwNhNiId-150">
          <mxGeometry width="160" relative="1" as="geometry">
            <mxPoint x="120" y="1300" as="sourcePoint" />
            <mxPoint x="470" y="900" as="targetPoint" />
          </mxGeometry>
        </mxCell>
      </root>
    </mxGraphModel>
  </diagram>
</mxfile>
